Shrek Forever After (2010) 1080P MKV X264 Eng-NLSubs-DMT

Verenigde Staten
Animatie / Komedie
93 minuten

geregisseerd door Mike Mitchell
met de stemmen van Mike Myers, Cameron Diaz en Eddie Murphy

In plaats van het afschrikken van menig dorpsbewoner is Shrek (Mike Myers) inmiddels een echte familieman geworden. 
Shrek komt in contact met de gladde praatjesmaker Repelsteeltje. 
Hierdoor komt hij tot zijn schrik terecht in een alternatieve versie van zijn wereld, Far Far Away, 
waar er gejaagd wordt op Ogres en hij Fiona (Cameron Diaz) helemaal nooit ontmoet heeft. 
Aan hem de taak om zijn vertrouwde wereld weer terug te krijgen.
-------------------------------------------------------------------------------------------------------------------

PLOT

Rumpelstiltskin tricks a mid-life crisis burdened Shrek into allowing himself to be erased from existence 
and cast in a dark alternate timeline where Rumpel rules supreme.
-------------------------------------------------------------------------------------------------------------------
 
http://www.youtube.com/watch?v=cQU3avO5V7s

MM:    http://www.moviemeter.nl/film/58677

IMDB:    http://www.imdb.com/title/tt0892791/
-------------------------------------------------------------------------------------------------------------------

INFO

Source.......: 1080P BluRay 
FRAME RATE...: 23.976Fps 
VIDEO CODEC..: X264
AUDIO CODEC..: AC3
RESOLUTION...: 1920x800
RUNTIME......: 93 MINS 
GENERE.......: Animation | Adventure | Comedy 
LANGUAGE.....: English
SUBTITLES....: English & Dutch

Thanks To Bradje

ENjoy


General
Complete name                    : Shrek.Forever.After.2010.1080P.MKV.X264.Eng.NLSubs-DMT.mkv
Format                           : Matroska
File size                        : 4.36 GiB
Duration                         : 1h 33mn
Overall bit rate                 : 6 707 Kbps
Movie name                       : Shrek Forever After (2010) 1080P.X264.NL.SUBBED.Bradje
Encoded date                     : UTC 2010-11-18 20:49:37
Writing application              : mkvmerge v3.3.0 ('Language') built on Mar 24 2010 14:59:24
Writing library                  : libebml v0.8.0 + libmatroska v0.9.0

Video
ID                               : 1
Format                           : AVC
Format/Info                      : Advanced Video Codec
Format profile                   : High@L4.1
Format settings, CABAC           : Yes
Format settings, ReFrames        : 5 frames
Format settings, GOP             : M=4, N=32
Muxing mode                      : Container profile=Unknown@4.1
Codec ID                         : V_MPEG4/ISO/AVC
Duration                         : 1h 33mn
Bit rate                         : 6 064 Kbps
Width                            : 1 920 pixels
Height                           : 816 pixels
Display aspect ratio             : 2.35:1
Frame rate                       : 23.976 fps
Color space                      : YUV
Chroma subsampling               : 4:2:0
Bit depth                        : 8 bits
Scan type                        : Progressive
Bits/(Pixel*Frame)               : 0.161
Stream size                      : 3.86 GiB (88%)
Title                            : x264
Writing library                  : x264 core 107 r1772 c9dad9e
Encoding settings                : cabac=1 / ref=5 / deblock=1:0:0 / analyse=0x3:0x113 / 
me=umh / subme=7 / psy=1 / psy_rd=1.00:0.15 / mixed_ref=1 / me_range=16 / chroma_me=1 / 
trellis=1 / 8x8dct=1 / cqm=0 / deadzone=21,11 / fast_pskip=0 / chroma_qp_offset=-3 / 
threads=12 / sliced_threads=0 / nr=0 / decimate=1 / interlaced=0 / constrained_intra=0 / 
bframes=3 / b_pyramid=2 / b_adapt=1 / b_bias=0 / direct=1 / weightb=1 / open_gop=0 / 
weightp=2 / keyint=250 / keyint_min=23 / scenecut=40 / intra_refresh=0 / rc_lookahead=40 / 
rc=2pass / mbtree=1 / bitrate=6064 / ratetol=1.0 / qcomp=0.60 / qpmin=10 / qpmax=51 / 
qpstep=4 / cplxblur=20.0 / qblur=0.5 / ip_ratio=1.40 / aq=1:1.00
Language                         : English

Audio
ID                               : 2
Format                           : AC-3
Format/Info                      : Audio Coding 3
Mode extension                   : CM (complete main)
Codec ID                         : A_AC3
Duration                         : 1h 33mn
Bit rate mode                    : Constant
Bit rate                         : 640 Kbps
Channel(s)                       : 6 channels
Channel positions                : Front: L C R, Side: L R, LFE
Sampling rate                    : 48.0 KHz
Bit depth                        : 16 bits
Stream size                      : 427 MiB (10%)
Title                            : AC3
Language                         : English

Text #1
ID                               : 3
Format                           : UTF-8
Codec ID                         : S_TEXT/UTF8
Codec ID/Info                    : UTF-8 Plain Text
Title                            : Subtitles
Language                         : Dutch

Text #2
ID                               : 4
Format                           : UTF-8
Codec ID                         : S_TEXT/UTF8
Codec ID/Info                    : UTF-8 Plain Text
Title                            : Subtitles
Language                         : English

Menu
00:00:00.000                     : en:00:00:00.000
00:04:47.787                     : en:00:04:47.787
00:08:39.936                     : en:00:08:39.936
00:14:51.724                     : en:00:14:51.724
00:19:51.190                     : en:00:19:51.190
00:24:43.315                     : en:00:24:43.315
00:33:22.334                     : en:00:33:22.334
00:41:11.469                     : en:00:41:11.469
00:44:51.272                     : en:00:44:51.272
00:48:32.451                     : en:00:48:32.451
00:51:31.630                     : en:00:51:31.630
00:53:02.388                     : en:00:53:02.388
00:58:25.961                     : en:00:58:25.961
01:03:13.748                     : en:01:03:13.748
01:05:48.862                     : en:01:05:48.862
01:12:34.475                     : en:01:12:34.475
01:20:00.421                     : en:01:20:00.421
01:23:13.822                     : en:01:23:13.822

